{
	"asset":{
		"generator":"Khronos glTF Blender I/O v3.5.30",
		"version":"2.0"
	},
	"scene":0,
	"scenes":[
		{
			"name":"Scene",
			"nodes":[
				0,
				1
			]
		}
	],
	"nodes":[
		{
			"mesh":0,
			"name":"Torus",
			"rotation":[
				0,
				0,
				-0.7071068286895752,
				0.7071067094802856
			]
		},
		{
			"mesh":1,
			"name":"Circle",
			"rotation":[
				0.4740632176399231,
				-0.4740632176399231,
				0.5246561765670776,
				0.5246561169624329
			]
		}
	],
	"materials":[
		{
			"doubleSided":true,
			"name":"Material.001",
			"pbrMetallicRoughness":{
				"baseColorFactor":[
					0,
					1,
					0.02382170781493187,
					1
				],
				"metallicFactor":0.197628453373909,
				"roughnessFactor":0.17075099050998688
			}
		},
		{
			"doubleSided":true,
			"emissiveFactor":[
				5.960464477539063e-08,
				5.960464477539063e-08,
				5.960464477539063e-08
			],
			"name":"Material.007",
			"pbrMetallicRoughness":{
				"baseColorTexture":{
					"index":0
				},
				"metallicFactor":0,
				"roughnessFactor":0.5
			}
		}
	],
	"meshes":[
		{
			"name":"Torus.001",
			"primitives":[
				{
					"attributes":{
						"POSITION":0,
						"TEXCOORD_0":1,
						"NORMAL":2
					},
					"indices":3,
					"material":0
				}
			]
		},
		{
			"name":"Circle.003",
			"primitives":[
				{
					"attributes":{
						"POSITION":4,
						"TEXCOORD_0":5,
						"NORMAL":6
					},
					"indices":7,
					"material":1
				}
			]
		}
	],
	"textures":[
		{
			"sampler":0,
			"source":0
		}
	],
	"images":[
		{
			"bufferView":8,
			"mimeType":"image/png",
			"name":"github"
		}
	],
	"accessors":[
		{
			"bufferView":0,
			"componentType":5126,
			"count":2326,
			"max":[
				1.0499999523162842,
				0.05000000074505806,
				1.0499999523162842
			],
			"min":[
				-1.0499999523162842,
				-0.05000000074505806,
				-1.0499999523162842
			],
			"type":"VEC3"
		},
		{
			"bufferView":1,
			"componentType":5126,
			"count":2326,
			"type":"VEC2"
		},
		{
			"bufferView":2,
			"componentType":5126,
			"count":2326,
			"type":"VEC3"
		},
		{
			"bufferView":3,
			"componentType":5123,
			"count":3456,
			"type":"SCALAR"
		},
		{
			"bufferView":4,
			"componentType":5126,
			"count":32,
			"max":[
				1,
				0,
				1
			],
			"min":[
				-1,
				0,
				-1
			],
			"type":"VEC3"
		},
		{
			"bufferView":5,
			"componentType":5126,
			"count":32,
			"type":"VEC2"
		},
		{
			"bufferView":6,
			"componentType":5126,
			"count":32,
			"type":"VEC3"
		},
		{
			"bufferView":7,
			"componentType":5123,
			"count":90,
			"type":"SCALAR"
		}
	],
	"bufferViews":[
		{
			"buffer":0,
			"byteLength":27912,
			"byteOffset":0,
			"target":34962
		},
		{
			"buffer":0,
			"byteLength":18608,
			"byteOffset":27912,
			"target":34962
		},
		{
			"buffer":0,
			"byteLength":27912,
			"byteOffset":46520,
			"target":34962
		},
		{
			"buffer":0,
			"byteLength":6912,
			"byteOffset":74432,
			"target":34963
		},
		{
			"buffer":0,
			"byteLength":384,
			"byteOffset":81344,
			"target":34962
		},
		{
			"buffer":0,
			"byteLength":256,
			"byteOffset":81728,
			"target":34962
		},
		{
			"buffer":0,
			"byteLength":384,
			"byteOffset":81984,
			"target":34962
		},
		{
			"buffer":0,
			"byteLength":180,
			"byteOffset":82368,
			"target":34963
		},
		{
			"buffer":0,
			"byteLength":389016,
			"byteOffset":82548
		}
	],
	"samplers":[
		{
			"magFilter":9729,
			"minFilter":9987
		}
	],
	"buffers":[
		{
			"byteLength":471564,
			"uri":"data:application/octet-stream;base64,"
		}
	]
}
