{
	"asset":{
		"generator":"Khronos glTF Blender I/O v3.5.30",
		"version":"2.0"
	},
	"scene":0,
	"scenes":[
		{
			"name":"Scene",
			"nodes":[
				0,
				1
			]
		}
	],
	"nodes":[
		{
			"mesh":0,
			"name":"Torus",
			"rotation":[
				0,
				0,
				-0.7071068286895752,
				0.7071067094802856
			]
		},
		{
			"name":"Empty",
			"rotation":[
				0.5,
				-0.5,
				0.5,
				0.5
			],
			"scale":[
				0.4000000059604645,
				1,
				0.4000000059604645
			]
		}
	],
	"materials":[
		{
			"doubleSided":true,
			"name":"Material.003",
			"pbrMetallicRoughness":{
				"baseColorFactor":[
					0,
					1,
					0.02382170781493187,
					1
				],
				"metallicFactor":0.197628453373909,
				"roughnessFactor":0.17075099050998688
			}
		}
	],
	"meshes":[
		{
			"name":"Torus",
			"primitives":[
				{
					"attributes":{
						"POSITION":0,
						"TEXCOORD_0":1,
						"NORMAL":2
					},
					"indices":3,
					"material":0
				}
			]
		}
	],
	"accessors":[
		{
			"bufferView":0,
			"componentType":5126,
			"count":2324,
			"max":[
				1.0499999523162842,
				0.05000000074505806,
				1.0499999523162842
			],
			"min":[
				-1.0499999523162842,
				-0.05000000074505806,
				-1.0499999523162842
			],
			"type":"VEC3"
		},
		{
			"bufferView":1,
			"componentType":5126,
			"count":2324,
			"type":"VEC2"
		},
		{
			"bufferView":2,
			"componentType":5126,
			"count":2324,
			"type":"VEC3"
		},
		{
			"bufferView":3,
			"componentType":5123,
			"count":3456,
			"type":"SCALAR"
		}
	],
	"bufferViews":[
		{
			"buffer":0,
			"byteLength":27888,
			"byteOffset":0,
			"target":34962
		},
		{
			"buffer":0,
			"byteLength":18592,
			"byteOffset":27888,
			"target":34962
		},
		{
			"buffer":0,
			"byteLength":27888,
			"byteOffset":46480,
			"target":34962
		},
		{
			"buffer":0,
			"byteLength":6912,
			"byteOffset":74368,
			"target":34963
		}
	],
	"buffers":[
		{
			"byteLength":81280,
			"uri":"data:application/octet-stream;base64,"
		}
	]
}
