{
	"asset":{
		"generator":"Khronos glTF Blender I/O v3.5.30",
		"version":"2.0"
	},
	"scene":0,
	"scenes":[
		{
			"name":"Scene",
			"nodes":[
				0,
				1
			]
		}
	],
	"nodes":[
		{
			"mesh":0,
			"name":"Torus",
			"rotation":[
				0,
				0,
				-0.7071068286895752,
				0.7071067094802856
			]
		},
		{
			"mesh":1,
			"name":"Circle",
			"rotation":[
				0.41562700271606445,
				-0.41562697291374207,
				0.5720614790916443,
				0.5720614194869995
			]
		}
	],
	"materials":[
		{
			"doubleSided":true,
			"name":"Material.003",
			"pbrMetallicRoughness":{
				"baseColorFactor":[
					0,
					0.8000000715255737,
					0.023034049198031425,
					1
				],
				"metallicFactor":0,
				"roughnessFactor":0.4000000059604645
			}
		},
		{
			"doubleSided":true,
			"name":"Material.004",
			"pbrMetallicRoughness":{
				"baseColorTexture":{
					"index":0
				},
				"metallicFactor":0,
				"roughnessFactor":0.5
			}
		}
	],
	"meshes":[
		{
			"name":"Torus.002",
			"primitives":[
				{
					"attributes":{
						"POSITION":0,
						"TEXCOORD_0":1,
						"NORMAL":2
					},
					"indices":3,
					"material":0
				}
			]
		},
		{
			"name":"Circle",
			"primitives":[
				{
					"attributes":{
						"POSITION":4,
						"TEXCOORD_0":5,
						"NORMAL":6
					},
					"indices":7,
					"material":1
				}
			]
		}
	],
	"textures":[
		{
			"sampler":0,
			"source":0
		}
	],
	"images":[
		{
			"bufferView":8,
			"mimeType":"image/png",
			"name":"middas"
		}
	],
	"accessors":[
		{
			"bufferView":0,
			"componentType":5126,
			"count":280,
			"max":[
				1.0499999523162842,
				0.04874637722969055,
				0.9986092448234558
			],
			"min":[
				-1.0499999523162842,
				-0.04874637722969055,
				-0.9986092448234558
			],
			"type":"VEC3"
		},
		{
			"bufferView":1,
			"componentType":5126,
			"count":280,
			"type":"VEC2"
		},
		{
			"bufferView":2,
			"componentType":5126,
			"count":280,
			"type":"VEC3"
		},
		{
			"bufferView":3,
			"componentType":5123,
			"count":420,
			"type":"SCALAR"
		},
		{
			"bufferView":4,
			"componentType":5126,
			"count":10,
			"max":[
				0.9510565400123596,
				0,
				1
			],
			"min":[
				-0.9510565400123596,
				0,
				-1
			],
			"type":"VEC3"
		},
		{
			"bufferView":5,
			"componentType":5126,
			"count":10,
			"type":"VEC2"
		},
		{
			"bufferView":6,
			"componentType":5126,
			"count":10,
			"type":"VEC3"
		},
		{
			"bufferView":7,
			"componentType":5123,
			"count":24,
			"type":"SCALAR"
		}
	],
	"bufferViews":[
		{
			"buffer":0,
			"byteLength":3360,
			"byteOffset":0,
			"target":34962
		},
		{
			"buffer":0,
			"byteLength":2240,
			"byteOffset":3360,
			"target":34962
		},
		{
			"buffer":0,
			"byteLength":3360,
			"byteOffset":5600,
			"target":34962
		},
		{
			"buffer":0,
			"byteLength":840,
			"byteOffset":8960,
			"target":34963
		},
		{
			"buffer":0,
			"byteLength":120,
			"byteOffset":9800,
			"target":34962
		},
		{
			"buffer":0,
			"byteLength":80,
			"byteOffset":9920,
			"target":34962
		},
		{
			"buffer":0,
			"byteLength":120,
			"byteOffset":10000,
			"target":34962
		},
		{
			"buffer":0,
			"byteLength":48,
			"byteOffset":10120,
			"target":34963
		},
		{
			"buffer":0,
			"byteLength":840557,
			"byteOffset":10168
		}
	],
	"samplers":[
		{
			"magFilter":9729,
			"minFilter":9987
		}
	],
	"buffers":[
		{
			"byteLength":850728,
			"uri":"data:application/octet-stream;base64,"
		}
	]
}
