{
	"asset":{
		"generator":"Khronos glTF Blender I/O v3.5.30",
		"version":"2.0"
	},
	"scene":0,
	"scenes":[
		{
			"name":"Scene",
			"nodes":[
				0
			]
		}
	],
	"nodes":[
		{
			"mesh":0,
			"name":"Torus",
			"rotation":[
				0,
				0,
				-0.7071068286895752,
				0.7071068286895752
			]
		}
	],
	"materials":[
		{
			"doubleSided":true,
			"name":"Material.001",
			"pbrMetallicRoughness":{
				"baseColorFactor":[
					0,
					0.11280182003974915,
					0.8000000715255737,
					1
				],
				"metallicFactor":0,
				"roughnessFactor":0.4000000059604645
			}
		}
	],
	"meshes":[
		{
			"name":"Torus",
			"primitives":[
				{
					"attributes":{
						"POSITION":0,
						"TEXCOORD_0":1,
						"NORMAL":2
					},
					"indices":3,
					"material":0
				}
			]
		}
	],
	"accessors":[
		{
			"bufferView":0,
			"componentType":5126,
			"count":280,
			"max":[
				1.0499999523162842,
				0.04874637722969055,
				0.9986092448234558
			],
			"min":[
				-1.0499999523162842,
				-0.04874637722969055,
				-0.9986092448234558
			],
			"type":"VEC3"
		},
		{
			"bufferView":1,
			"componentType":5126,
			"count":280,
			"type":"VEC2"
		},
		{
			"bufferView":2,
			"componentType":5126,
			"count":280,
			"type":"VEC3"
		},
		{
			"bufferView":3,
			"componentType":5123,
			"count":420,
			"type":"SCALAR"
		}
	],
	"bufferViews":[
		{
			"buffer":0,
			"byteLength":3360,
			"byteOffset":0,
			"target":34962
		},
		{
			"buffer":0,
			"byteLength":2240,
			"byteOffset":3360,
			"target":34962
		},
		{
			"buffer":0,
			"byteLength":3360,
			"byteOffset":5600,
			"target":34962
		},
		{
			"buffer":0,
			"byteLength":840,
			"byteOffset":8960,
			"target":34963
		}
	],
	"buffers":[
		{
			"byteLength":9800,
			"uri":"data:application/octet-stream;base64,"
		}
	]
}
