{
	"asset":{
		"generator":"Khronos glTF Blender I/O v3.5.30",
		"version":"2.0"
	},
	"scene":0,
	"scenes":[
		{
			"name":"Scene",
			"nodes":[
				0
			]
		}
	],
	"nodes":[
		{
			"mesh":0,
			"name":"Icosphere",
			"scale":[
				2.282783031463623,
				2.282783031463623,
				2.282783031463623
			]
		}
	],
	"materials":[
		{
			"doubleSided":true,
			"name":"Material.001",
			"pbrMetallicRoughness":{
				"baseColorFactor":[
					0.10045017302036285,
					0.10295765101909637,
					0.11280205845832825,
					1
				],
				"metallicFactor":0,
				"roughnessFactor":0.4000000059604645
			}
		}
	],
	"meshes":[
		{
			"name":"Icosphere",
			"primitives":[
				{
					"attributes":{
						"POSITION":0,
						"TEXCOORD_0":1,
						"NORMAL":2
					},
					"indices":3,
					"material":0
				}
			]
		}
	],
	"accessors":[
		{
			"bufferView":0,
			"componentType":5126,
			"count":960,
			"max":[
				0.9531725645065308,
				1.086248517036438,
				0.9675912261009216
			],
			"min":[
				-0.9735639095306396,
				-1.16855788230896,
				-1.0090233087539673
			],
			"type":"VEC3"
		},
		{
			"bufferView":1,
			"componentType":5126,
			"count":960,
			"type":"VEC2"
		},
		{
			"bufferView":2,
			"componentType":5126,
			"count":960,
			"type":"VEC3"
		},
		{
			"bufferView":3,
			"componentType":5123,
			"count":960,
			"type":"SCALAR"
		}
	],
	"bufferViews":[
		{
			"buffer":0,
			"byteLength":11520,
			"byteOffset":0,
			"target":34962
		},
		{
			"buffer":0,
			"byteLength":7680,
			"byteOffset":11520,
			"target":34962
		},
		{
			"buffer":0,
			"byteLength":11520,
			"byteOffset":19200,
			"target":34962
		},
		{
			"buffer":0,
			"byteLength":1920,
			"byteOffset":30720,
			"target":34963
		}
	],
	"buffers":[
		{
			"byteLength":32640,
			"uri":"data:application/octet-stream;base64,"
		}
	]
}
