{
	"asset":{
		"generator":"Khronos glTF Blender I/O v3.5.30",
		"version":"2.0"
	},
	"scene":0,
	"scenes":[
		{
			"name":"Scene",
			"nodes":[
				15
			]
		}
	],
	"nodes":[
		{
			"mesh":0,
			"name":"Object_16"
		},
		{
			"children":[
				0
			],
			"name":"Circle_4",
			"rotation":[
				0,
				0,
				-0.5312443971633911,
				0.8472186326980591
			],
			"scale":[
				0.12208129465579987,
				0.12208129465579987,
				0.15165363252162933
			],
			"translation":[
				1.226359248161316,
				0.8155550956726074,
				0.00656476616859436
			]
		},
		{
			"mesh":1,
			"name":"Object_14"
		},
		{
			"children":[
				2
			],
			"name":"Cylinder.001_3",
			"rotation":[
				-0.0086622703820467,
				0.00816362164914608,
				0.7070363759994507,
				0.7070770859718323
			],
			"scale":[
				0.4537573754787445,
				0.10528140515089035,
				0.45345062017440796
			],
			"translation":[
				2.335226058959961,
				0.20332840085029602,
				0.008464819751679897
			]
		},
		{
			"mesh":2,
			"name":"Object_11"
		},
		{
			"children":[
				4
			],
			"name":"Cylinder_0",
			"scale":[
				0.5862137079238892,
				0.5862138271331787,
				0.5862138271331787
			],
			"translation":[
				0.004424433223903179,
				0.625126302242279,
				-0.009669579565525055
			]
		},
		{
			"mesh":3,
			"name":"Object_8"
		},
		{
			"mesh":4,
			"name":"Object_9"
		},
		{
			"children":[
				5,
				6,
				7
			],
			"name":"fuselage_1",
			"rotation":[
				0,
				0,
				-0.7071068286895752,
				0.7071067094802856
			],
			"scale":[
				0.5765619874000549,
				0.5765619874000549,
				0.5765619874000549
			],
			"translation":[
				0.643250584602356,
				0.8645964860916138,
				-0.009081188589334488
			]
		},
		{
			"mesh":5,
			"name":"Object_4"
		},
		{
			"mesh":6,
			"name":"Object_5"
		},
		{
			"mesh":7,
			"name":"Object_6"
		},
		{
			"children":[
				8,
				9,
				10,
				11
			],
			"name":"plane_2",
			"translation":[
				1.892844796180725,
				-0.6096377372741699,
				0.02312111109495163
			]
		},
		{
			"children":[
				1,
				3,
				12
			],
			"name":"GLTF_SceneRootNode",
			"rotation":[
				0.70710688829422,
				0,
				0,
				0.7071066498756409
			]
		},
		{
			"children":[
				13
			],
			"name":"root"
		},
		{
			"children":[
				14
			],
			"name":"Sketchfab_model",
			"rotation":[
				-0.70710688829422,
				0,
				0,
				0.7071066498756409
			]
		}
	],
	"materials":[
		{
			"doubleSided":true,
			"name":"Material.001",
			"pbrMetallicRoughness":{}
		},
		{
			"doubleSided":true,
			"name":"metal.001",
			"pbrMetallicRoughness":{
				"baseColorFactor":[
					0.22979000210762024,
					0.22979000210762024,
					0.22979000210762024,
					1
				],
				"metallicFactor":0.5,
				"roughnessFactor":0.5
			}
		},
		{
			"doubleSided":true,
			"name":"body_paint.001",
			"pbrMetallicRoughness":{
				"baseColorFactor":[
					0.800000011920929,
					0.011247499845921993,
					0,
					1
				],
				"metallicFactor":0.10000000149011612,
				"roughnessFactor":0.20000000298023224
			}
		},
		{
			"doubleSided":true,
			"name":"rubber.001",
			"pbrMetallicRoughness":{
				"baseColorFactor":[
					0.01054729986935854,
					0.01054729986935854,
					0.01054729986935854,
					1
				],
				"metallicFactor":0
			}
		}
	],
	"meshes":[
		{
			"name":"Object_8.001",
			"primitives":[
				{
					"attributes":{
						"POSITION":0,
						"TEXCOORD_0":1,
						"NORMAL":2
					},
					"indices":3,
					"material":0
				}
			]
		},
		{
			"name":"Object_7.001",
			"primitives":[
				{
					"attributes":{
						"POSITION":4,
						"TEXCOORD_0":5,
						"NORMAL":6
					},
					"indices":7,
					"material":1
				}
			]
		},
		{
			"name":"Object_5.001",
			"primitives":[
				{
					"attributes":{
						"POSITION":8,
						"TEXCOORD_0":9,
						"NORMAL":10
					},
					"indices":11,
					"material":2
				}
			]
		},
		{
			"name":"Object_3.001",
			"primitives":[
				{
					"attributes":{
						"POSITION":12,
						"TEXCOORD_0":13,
						"NORMAL":14
					},
					"indices":15,
					"material":2
				}
			]
		},
		{
			"name":"Object_4.001",
			"primitives":[
				{
					"attributes":{
						"POSITION":16,
						"TEXCOORD_0":17,
						"NORMAL":18
					},
					"indices":19,
					"material":1
				}
			]
		},
		{
			"name":"Object_0.001",
			"primitives":[
				{
					"attributes":{
						"POSITION":20,
						"TEXCOORD_0":21,
						"NORMAL":22
					},
					"indices":23,
					"material":1
				}
			]
		},
		{
			"name":"Object_1.001",
			"primitives":[
				{
					"attributes":{
						"POSITION":24,
						"TEXCOORD_0":25,
						"NORMAL":26
					},
					"indices":27,
					"material":2
				}
			]
		},
		{
			"name":"Object_2.001",
			"primitives":[
				{
					"attributes":{
						"POSITION":28,
						"TEXCOORD_0":29,
						"NORMAL":30
					},
					"indices":31,
					"material":3
				}
			]
		}
	],
	"accessors":[
		{
			"bufferView":0,
			"componentType":5126,
			"count":246,
			"max":[
				1,
				0,
				1
			],
			"min":[
				-1.0096858739852905,
				-0.47360682487487793,
				-1
			],
			"type":"VEC3"
		},
		{
			"bufferView":1,
			"componentType":5126,
			"count":246,
			"type":"VEC2"
		},
		{
			"bufferView":2,
			"componentType":5126,
			"count":246,
			"type":"VEC3"
		},
		{
			"bufferView":3,
			"componentType":5123,
			"count":372,
			"type":"SCALAR"
		},
		{
			"bufferView":4,
			"componentType":5126,
			"count":72,
			"max":[
				1,
				1,
				1
			],
			"min":[
				-1,
				-1,
				-1
			],
			"type":"VEC3"
		},
		{
			"bufferView":5,
			"componentType":5126,
			"count":72,
			"type":"VEC2"
		},
		{
			"bufferView":6,
			"componentType":5126,
			"count":72,
			"type":"VEC3"
		},
		{
			"bufferView":7,
			"componentType":5123,
			"count":132,
			"type":"SCALAR"
		},
		{
			"bufferView":8,
			"componentType":5126,
			"count":164,
			"max":[
				1,
				-0.14836402237415314,
				1
			],
			"min":[
				-1,
				-2.1932458877563477,
				-1
			],
			"type":"VEC3"
		},
		{
			"bufferView":9,
			"componentType":5126,
			"count":164,
			"type":"VEC2"
		},
		{
			"bufferView":10,
			"componentType":5126,
			"count":164,
			"type":"VEC3"
		},
		{
			"bufferView":11,
			"componentType":5123,
			"count":276,
			"type":"SCALAR"
		},
		{
			"bufferView":12,
			"componentType":5126,
			"count":764,
			"max":[
				1.0975730419158936,
				-0.0009820080595090985,
				1.0454685688018799
			],
			"min":[
				-1.0454684495925903,
				-8.4197416305542,
				-1.0513951778411865
			],
			"type":"VEC3"
		},
		{
			"bufferView":13,
			"componentType":5126,
			"count":764,
			"type":"VEC2"
		},
		{
			"bufferView":14,
			"componentType":5126,
			"count":764,
			"type":"VEC3"
		},
		{
			"bufferView":15,
			"componentType":5123,
			"count":1086,
			"type":"SCALAR"
		},
		{
			"bufferView":16,
			"componentType":5126,
			"count":6856,
			"max":[
				0.7344486117362976,
				0.01937916874885559,
				0.7212373614311218
			],
			"min":[
				-0.7089975476264954,
				-0.24480868875980377,
				-0.7330541014671326
			],
			"type":"VEC3"
		},
		{
			"bufferView":17,
			"componentType":5126,
			"count":6856,
			"type":"VEC2"
		},
		{
			"bufferView":18,
			"componentType":5126,
			"count":6856,
			"type":"VEC3"
		},
		{
			"bufferView":19,
			"componentType":5123,
			"count":10260,
			"type":"SCALAR"
		},
		{
			"bufferView":20,
			"componentType":5126,
			"count":1654,
			"max":[
				0.4112797975540161,
				1.7780413627624512,
				3.123692512512207
			],
			"min":[
				-1.0700011253356934,
				-0.7613989114761353,
				-3.123692512512207
			],
			"type":"VEC3"
		},
		{
			"bufferView":21,
			"componentType":5126,
			"count":1654,
			"type":"VEC2"
		},
		{
			"bufferView":22,
			"componentType":5126,
			"count":1654,
			"type":"VEC3"
		},
		{
			"bufferView":23,
			"componentType":5123,
			"count":2688,
			"type":"SCALAR"
		},
		{
			"bufferView":24,
			"componentType":5126,
			"count":404,
			"max":[
				0.2602877616882324,
				1.92475163936615,
				4.2220563888549805
			],
			"min":[
				-4.709607124328613,
				0.2891623377799988,
				-4.2220563888549805
			],
			"type":"VEC3"
		},
		{
			"bufferView":25,
			"componentType":5126,
			"count":404,
			"type":"VEC2"
		},
		{
			"bufferView":26,
			"componentType":5126,
			"count":404,
			"type":"VEC3"
		},
		{
			"bufferView":27,
			"componentType":5123,
			"count":699,
			"type":"SCALAR"
		},
		{
			"bufferView":28,
			"componentType":5126,
			"count":120,
			"max":[
				0.4929676055908203,
				-0.11347842216491699,
				0.9007786512374878
			],
			"min":[
				-0.23664051294326782,
				-0.8430867195129395,
				-0.9007786512374878
			],
			"type":"VEC3"
		},
		{
			"bufferView":29,
			"componentType":5126,
			"count":120,
			"type":"VEC2"
		},
		{
			"bufferView":30,
			"componentType":5126,
			"count":120,
			"type":"VEC3"
		},
		{
			"bufferView":31,
			"componentType":5123,
			"count":228,
			"type":"SCALAR"
		}
	],
	"bufferViews":[
		{
			"buffer":0,
			"byteLength":2952,
			"byteOffset":0,
			"target":34962
		},
		{
			"buffer":0,
			"byteLength":1968,
			"byteOffset":2952,
			"target":34962
		},
		{
			"buffer":0,
			"byteLength":2952,
			"byteOffset":4920,
			"target":34962
		},
		{
			"buffer":0,
			"byteLength":744,
			"byteOffset":7872,
			"target":34963
		},
		{
			"buffer":0,
			"byteLength":864,
			"byteOffset":8616,
			"target":34962
		},
		{
			"buffer":0,
			"byteLength":576,
			"byteOffset":9480,
			"target":34962
		},
		{
			"buffer":0,
			"byteLength":864,
			"byteOffset":10056,
			"target":34962
		},
		{
			"buffer":0,
			"byteLength":264,
			"byteOffset":10920,
			"target":34963
		},
		{
			"buffer":0,
			"byteLength":1968,
			"byteOffset":11184,
			"target":34962
		},
		{
			"buffer":0,
			"byteLength":1312,
			"byteOffset":13152,
			"target":34962
		},
		{
			"buffer":0,
			"byteLength":1968,
			"byteOffset":14464,
			"target":34962
		},
		{
			"buffer":0,
			"byteLength":552,
			"byteOffset":16432,
			"target":34963
		},
		{
			"buffer":0,
			"byteLength":9168,
			"byteOffset":16984,
			"target":34962
		},
		{
			"buffer":0,
			"byteLength":6112,
			"byteOffset":26152,
			"target":34962
		},
		{
			"buffer":0,
			"byteLength":9168,
			"byteOffset":32264,
			"target":34962
		},
		{
			"buffer":0,
			"byteLength":2172,
			"byteOffset":41432,
			"target":34963
		},
		{
			"buffer":0,
			"byteLength":82272,
			"byteOffset":43604,
			"target":34962
		},
		{
			"buffer":0,
			"byteLength":54848,
			"byteOffset":125876,
			"target":34962
		},
		{
			"buffer":0,
			"byteLength":82272,
			"byteOffset":180724,
			"target":34962
		},
		{
			"buffer":0,
			"byteLength":20520,
			"byteOffset":262996,
			"target":34963
		},
		{
			"buffer":0,
			"byteLength":19848,
			"byteOffset":283516,
			"target":34962
		},
		{
			"buffer":0,
			"byteLength":13232,
			"byteOffset":303364,
			"target":34962
		},
		{
			"buffer":0,
			"byteLength":19848,
			"byteOffset":316596,
			"target":34962
		},
		{
			"buffer":0,
			"byteLength":5376,
			"byteOffset":336444,
			"target":34963
		},
		{
			"buffer":0,
			"byteLength":4848,
			"byteOffset":341820,
			"target":34962
		},
		{
			"buffer":0,
			"byteLength":3232,
			"byteOffset":346668,
			"target":34962
		},
		{
			"buffer":0,
			"byteLength":4848,
			"byteOffset":349900,
			"target":34962
		},
		{
			"buffer":0,
			"byteLength":1398,
			"byteOffset":354748,
			"target":34963
		},
		{
			"buffer":0,
			"byteLength":1440,
			"byteOffset":356148,
			"target":34962
		},
		{
			"buffer":0,
			"byteLength":960,
			"byteOffset":357588,
			"target":34962
		},
		{
			"buffer":0,
			"byteLength":1440,
			"byteOffset":358548,
			"target":34962
		},
		{
			"buffer":0,
			"byteLength":456,
			"byteOffset":359988,
			"target":34963
		}
	],
	"buffers":[
		{
			"byteLength":360444,
			"uri":"data:application/octet-stream;base64,"
		}
	]
}
