{
	"asset":{
		"generator":"Khronos glTF Blender I/O v3.5.30",
		"version":"2.0"
	},
	"scene":0,
	"scenes":[
		{
			"name":"Scene",
			"nodes":[
				0,
				4
			]
		}
	],
	"nodes":[
		{
			"name":"Cylinder.001_3",
			"rotation":[
				-0.0086622703820467,
				0.008163620717823505,
				0.7070363759994507,
				0.7070770263671875
			],
			"scale":[
				0.4537574350833893,
				0.10528141260147095,
				0.45345062017440796
			]
		},
		{
			"mesh":0,
			"name":"Object_12",
			"translation":[
				0,
				0.7147735357284546,
				0
			]
		},
		{
			"children":[
				1
			],
			"name":"Cylinder_0",
			"scale":[
				0.5862137675285339,
				0.5862138271331787,
				0.5862138867378235
			]
		},
		{
			"children":[
				2
			],
			"name":"fuselage_1",
			"rotation":[
				0,
				0,
				-0.7071068286895752,
				0.7071067094802856
			],
			"scale":[
				0.5765621066093445,
				0.5765621066093445,
				0.5765619874000549
			]
		},
		{
			"children":[
				3
			],
			"name":"plane_2"
		}
	],
	"animations":[
		{
			"channels":[
				{
					"sampler":0,
					"target":{
						"node":1,
						"path":"rotation"
					}
				}
			],
			"name":"Object_12Action",
			"samplers":[
				{
					"input":4,
					"interpolation":"LINEAR",
					"output":5
				}
			]
		},
		{
			"channels":[
				{
					"sampler":0,
					"target":{
						"node":1,
						"path":"rotation"
					}
				}
			],
			"name":"PlaneSpin",
			"samplers":[
				{
					"input":4,
					"interpolation":"LINEAR",
					"output":6
				}
			]
		},
		{
			"channels":[
				{
					"sampler":0,
					"target":{
						"node":1,
						"path":"rotation"
					}
				}
			],
			"name":"PlaneStart",
			"samplers":[
				{
					"input":4,
					"interpolation":"LINEAR",
					"output":7
				}
			]
		},
		{
			"channels":[
				{
					"sampler":0,
					"target":{
						"node":1,
						"path":"rotation"
					}
				}
			],
			"name":"PlaneStop",
			"samplers":[
				{
					"input":4,
					"interpolation":"LINEAR",
					"output":8
				}
			]
		}
	],
	"materials":[
		{
			"doubleSided":true,
			"name":"Material.002",
			"pbrMetallicRoughness":{
				"baseColorFactor":[
					0.6094865202903748,
					0.6094865202903748,
					0.6094865202903748,
					1
				],
				"metallicFactor":0,
				"roughnessFactor":0.4584980309009552
			}
		}
	],
	"meshes":[
		{
			"name":"Object_6.002",
			"primitives":[
				{
					"attributes":{
						"POSITION":0,
						"TEXCOORD_0":1,
						"NORMAL":2
					},
					"indices":3,
					"material":0
				}
			]
		}
	],
	"accessors":[
		{
			"bufferView":0,
			"componentType":5126,
			"count":224,
			"max":[
				3.6729979515075684,
				-0.5106407999992371,
				3.6729977130889893
			],
			"min":[
				-3.67299747467041,
				-0.8996738195419312,
				-3.6729981899261475
			],
			"type":"VEC3"
		},
		{
			"bufferView":1,
			"componentType":5126,
			"count":224,
			"type":"VEC2"
		},
		{
			"bufferView":2,
			"componentType":5126,
			"count":224,
			"type":"VEC3"
		},
		{
			"bufferView":3,
			"componentType":5123,
			"count":336,
			"type":"SCALAR"
		},
		{
			"bufferView":4,
			"componentType":5126,
			"count":25,
			"max":[
				1
			],
			"min":[
				0
			],
			"type":"SCALAR"
		},
		{
			"bufferView":5,
			"componentType":5126,
			"count":25,
			"type":"VEC4"
		},
		{
			"bufferView":6,
			"componentType":5126,
			"count":25,
			"type":"VEC4"
		},
		{
			"bufferView":7,
			"componentType":5126,
			"count":25,
			"type":"VEC4"
		},
		{
			"bufferView":8,
			"componentType":5126,
			"count":25,
			"type":"VEC4"
		}
	],
	"bufferViews":[
		{
			"buffer":0,
			"byteLength":2688,
			"byteOffset":0,
			"target":34962
		},
		{
			"buffer":0,
			"byteLength":1792,
			"byteOffset":2688,
			"target":34962
		},
		{
			"buffer":0,
			"byteLength":2688,
			"byteOffset":4480,
			"target":34962
		},
		{
			"buffer":0,
			"byteLength":672,
			"byteOffset":7168,
			"target":34963
		},
		{
			"buffer":0,
			"byteLength":100,
			"byteOffset":7840
		},
		{
			"buffer":0,
			"byteLength":400,
			"byteOffset":7940
		},
		{
			"buffer":0,
			"byteLength":400,
			"byteOffset":8340
		},
		{
			"buffer":0,
			"byteLength":400,
			"byteOffset":8740
		},
		{
			"buffer":0,
			"byteLength":400,
			"byteOffset":9140
		}
	],
	"buffers":[
		{
			"byteLength":9540,
			"uri":"data:application/octet-stream;base64,"
		}
	]
}
