{
  "accessors": [
    {
      "bufferView": 2,
      "componentType": 5126,
      "count": 1564,
      "max": [
        0.4112797975540161,
        1.7780413627624512,
        3.123692512512207
      ],
      "min": [
        -1.0700011253356934,
        -0.7613989114761353,
        -3.123692512512207
      ],
      "type": "VEC3"
    },
    {
      "bufferView": 2,
      "byteOffset": 18768,
      "componentType": 5126,
      "count": 1564,
      "max": [
        1.0,
        0.9973472356796265,
        1.0
      ],
      "min": [
        -1.0,
        -0.9973471760749817,
        -1.0
      ],
      "type": "VEC3"
    },
    {
      "bufferView": 1,
      "componentType": 5126,
      "count": 1564,
      "max": [
        1.0,
        1.0000001192092896
      ],
      "min": [
        0.0,
        0.01000000536441803
      ],
      "type": "VEC2"
    },
    {
      "bufferView": 0,
      "componentType": 5125,
      "count": 2688,
      "type": "SCALAR"
    },
    {
      "bufferView": 2,
      "byteOffset": 37536,
      "componentType": 5126,
      "count": 384,
      "max": [
        0.2602877616882324,
        1.92475163936615,
        4.2220563888549805
      ],
      "min": [
        -4.709607124328613,
        0.2891623377799988,
        -4.2220563888549805
      ],
      "type": "VEC3"
    },
    {
      "bufferView": 2,
      "byteOffset": 42144,
      "componentType": 5126,
      "count": 384,
      "max": [
        1.0,
        0.9999811053276062,
        1.0
      ],
      "min": [
        -1.0,
        -1.0,
        -1.0
      ],
      "type": "VEC3"
    },
    {
      "bufferView": 1,
      "byteOffset": 12512,
      "componentType": 5126,
      "count": 384,
      "max": [
        0.8750000596046448,
        1.0
      ],
      "min": [
        0.0,
        0.0
      ],
      "type": "VEC2"
    },
    {
      "bufferView": 0,
      "byteOffset": 10752,
      "componentType": 5125,
      "count": 699,
      "type": "SCALAR"
    },
    {
      "bufferView": 2,
      "byteOffset": 46752,
      "componentType": 5126,
      "count": 120,
      "max": [
        0.4929676055908203,
        -0.11347842216491699,
        0.9007786512374878
      ],
      "min": [
        -0.23664051294326782,
        -0.8430867195129395,
        -0.9007786512374878
      ],
      "type": "VEC3"
    },
    {
      "bufferView": 2,
      "byteOffset": 48192,
      "componentType": 5126,
      "count": 120,
      "max": [
        0.9238795638084412,
        0.9238795638084412,
        1.0
      ],
      "min": [
        -0.9238796234130859,
        -0.9238795042037964,
        -1.0
      ],
      "type": "VEC3"
    },
    {
      "bufferView": 1,
      "byteOffset": 15584,
      "componentType": 5126,
      "count": 120,
      "max": [
        1.0,
        1.0
      ],
      "min": [
        0.0,
        0.01000000536441803
      ],
      "type": "VEC2"
    },
    {
      "bufferView": 0,
      "byteOffset": 13548,
      "componentType": 5125,
      "count": 228,
      "type": "SCALAR"
    },
    {
      "bufferView": 2,
      "byteOffset": 49632,
      "componentType": 5126,
      "count": 670,
      "max": [
        1.0975730419158936,
        -0.0009820080595090985,
        1.0454685688018799
      ],
      "min": [
        -1.0454684495925903,
        -8.4197416305542,
        -1.0513951778411865
      ],
      "type": "VEC3"
    },
    {
      "bufferView": 2,
      "byteOffset": 57672,
      "componentType": 5126,
      "count": 670,
      "max": [
        0.9882238507270813,
        0.9999997019767761,
        0.9680708646774292
      ],
      "min": [
        -0.9883778691291809,
        -1.0,
        -0.9673572182655334
      ],
      "type": "VEC3"
    },
    {
      "bufferView": 1,
      "byteOffset": 16544,
      "componentType": 5126,
      "count": 670,
      "max": [
        1.0,
        0.9057803750038147
      ],
      "min": [
        0.0,
        0.0
      ],
      "type": "VEC2"
    },
    {
      "bufferView": 0,
      "byteOffset": 14460,
      "componentType": 5125,
      "count": 1086,
      "type": "SCALAR"
    },
    {
      "bufferView": 2,
      "byteOffset": 65712,
      "componentType": 5126,
      "count": 6804,
      "max": [
        0.7344486117362976,
        0.01937916874885559,
        0.7212373614311218
      ],
      "min": [
        -0.7089975476264954,
        -0.24480868875980377,
        -0.7330541014671326
      ],
      "type": "VEC3"
    },
    {
      "bufferView": 2,
      "byteOffset": 147360,
      "componentType": 5126,
      "count": 6804,
      "max": [
        0.9956944584846497,
        1.0,
        0.9966649413108826
      ],
      "min": [
        -0.9956942200660706,
        -0.9659262895584106,
        -0.996664822101593
      ],
      "type": "VEC3"
    },
    {
      "bufferView": 1,
      "byteOffset": 21904,
      "componentType": 5126,
      "count": 6804,
      "max": [
        1.0,
        1.0
      ],
      "min": [
        7.450580596923828e-08,
        0.01000000536441803
      ],
      "type": "VEC2"
    },
    {
      "bufferView": 0,
      "byteOffset": 18804,
      "componentType": 5125,
      "count": 10260,
      "type": "SCALAR"
    },
    {
      "bufferView": 2,
      "byteOffset": 229008,
      "componentType": 5126,
      "count": 164,
      "max": [
        1.0,
        -0.14836402237415314,
        1.0
      ],
      "min": [
        -1.0,
        -2.1932458877563477,
        -1.0
      ],
      "type": "VEC3"
    },
    {
      "bufferView": 2,
      "byteOffset": 230976,
      "componentType": 5126,
      "count": 164,
      "max": [
        0.9238795638084412,
        1.0,
        0.9238795638084412
      ],
      "min": [
        -0.9238796234130859,
        -1.0,
        -0.9238795638084412
      ],
      "type": "VEC3"
    },
    {
      "bufferView": 1,
      "byteOffset": 76336,
      "componentType": 5126,
      "count": 164,
      "max": [
        1.0,
        1.0
      ],
      "min": [
        0.0,
        0.01000000536441803
      ],
      "type": "VEC2"
    },
    {
      "bufferView": 0,
      "byteOffset": 59844,
      "componentType": 5125,
      "count": 276,
      "type": "SCALAR"
    },
    {
      "bufferView": 2,
      "byteOffset": 232944,
      "componentType": 5126,
      "count": 224,
      "max": [
        3.6729979515075684,
        -0.5106407999992371,
        3.6729977130889893
      ],
      "min": [
        -3.67299747467041,
        -0.8996738195419312,
        -3.6729981899261475
      ],
      "type": "VEC3"
    },
    {
      "bufferView": 2,
      "byteOffset": 235632,
      "componentType": 5126,
      "count": 224,
      "max": [
        0.926411509513855,
        1.0,
        0.9264115691184998
      ],
      "min": [
        -0.926411509513855,
        -1.0,
        -0.9264115691184998
      ],
      "type": "VEC3"
    },
    {
      "bufferView": 1,
      "byteOffset": 77648,
      "componentType": 5126,
      "count": 224,
      "max": [
        0.875,
        1.0
      ],
      "min": [
        0.125,
        0.0
      ],
      "type": "VEC2"
    },
    {
      "bufferView": 0,
      "byteOffset": 60948,
      "componentType": 5125,
      "count": 336,
      "type": "SCALAR"
    },
    {
      "bufferView": 2,
      "byteOffset": 238320,
      "componentType": 5126,
      "count": 72,
      "max": [
        1.0,
        1.0,
        1.0
      ],
      "min": [
        -1.0,
        -1.0,
        -1.0
      ],
      "type": "VEC3"
    },
    {
      "bufferView": 2,
      "byteOffset": 239184,
      "componentType": 5126,
      "count": 72,
      "max": [
        0.965925931930542,
        1.0,
        0.965925931930542
      ],
      "min": [
        -0.9659259915351868,
        -1.0,
        -0.9659258127212524
      ],
      "type": "VEC3"
    },
    {
      "bufferView": 1,
      "byteOffset": 79440,
      "componentType": 5126,
      "count": 72,
      "max": [
        1.0,
        1.0
      ],
      "min": [
        7.450580596923828e-08,
        0.01000000536441803
      ],
      "type": "VEC2"
    },
    {
      "bufferView": 0,
      "byteOffset": 62292,
      "componentType": 5125,
      "count": 132,
      "type": "SCALAR"
    },
    {
      "bufferView": 2,
      "byteOffset": 240048,
      "componentType": 5126,
      "count": 192,
      "max": [
        1.0,
        0.0,
        1.0
      ],
      "min": [
        -1.0096858739852905,
        -0.47360682487487793,
        -1.0
      ],
      "type": "VEC3"
    },
    {
      "bufferView": 2,
      "byteOffset": 242352,
      "componentType": 5126,
      "count": 192,
      "max": [
        0.9929785132408142,
        0.9863671660423279,
        0.9951517581939697
      ],
      "min": [
        -0.9922034740447998,
        -1.0,
        -0.9951517581939697
      ],
      "type": "VEC3"
    },
    {
      "bufferView": 1,
      "byteOffset": 80016,
      "componentType": 5126,
      "count": 192,
      "max": [
        0.0,
        0.0
      ],
      "min": [
        0.0,
        0.0
      ],
      "type": "VEC2"
    },
    {
      "bufferView": 0,
      "byteOffset": 62820,
      "componentType": 5125,
      "count": 372,
      "type": "SCALAR"
    }
  ],
  "asset": {
    "extras": {
      "author": "lord_syrup (https://sketchfab.com/lord_syrup)",
      "license": "CC-BY-4.0 (http://creativecommons.org/licenses/by/4.0/)",
      "source": "https://sketchfab.com/3d-models/low-poly-biplane-755175daea384176813e7dc90b2245a5",
      "title": "Low-Poly Biplane"
    },
    "generator": "Sketchfab-12.68.0",
    "version": "2.0"
  },
  "bufferViews": [
    {
      "buffer": 0,
      "byteLength": 64308,
      "name": "floatBufferViews",
      "target": 34963
    },
    {
      "buffer": 0,
      "byteLength": 81552,
      "byteOffset": 64308,
      "byteStride": 8,
      "name": "floatBufferViews",
      "target": 34962
    },
    {
      "buffer": 0,
      "byteLength": 244656,
      "byteOffset": 145860,
      "byteStride": 12,
      "name": "floatBufferViews",
      "target": 34962
    }
  ],
  "buffers": [
    {
      "byteLength": 390516,
      "uri": "scene.bin"
    }
  ],
  "materials": [
    {
      "doubleSided": true,
      "name": "metal",
      "pbrMetallicRoughness": {
        "baseColorFactor": [
          0.22979,
          0.22979,
          0.22979,
          1.0
        ],
        "metallicFactor": 0.5,
        "roughnessFactor": 0.5
      }
    },
    {
      "doubleSided": true,
      "name": "body_paint",
      "pbrMetallicRoughness": {
        "baseColorFactor": [
          0.8,
          0.0112475,
          0.0,
          1.0
        ],
        "metallicFactor": 0.1,
        "roughnessFactor": 0.2
      }
    },
    {
      "doubleSided": true,
      "name": "rubber",
      "pbrMetallicRoughness": {
        "baseColorFactor": [
          0.0105473,
          0.0105473,
          0.0105473,
          1.0
        ],
        "metallicFactor": 0.0
      }
    },
    {
      "doubleSided": true,
      "name": "wood",
      "pbrMetallicRoughness": {
        "baseColorFactor": [
          0.512191,
          0.4035,
          0.248018,
          1.0
        ],
        "metallicFactor": 0.0,
        "roughnessFactor": 0.5
      }
    },
    {
      "doubleSided": true,
      "name": "Material.002"
    }
  ],
  "meshes": [
    {
      "name": "Object_0",
      "primitives": [
        {
          "attributes": {
            "NORMAL": 1,
            "POSITION": 0,
            "TEXCOORD_0": 2
          },
          "indices": 3,
          "material": 0,
          "mode": 4
        }
      ]
    },
    {
      "name": "Object_1",
      "primitives": [
        {
          "attributes": {
            "NORMAL": 5,
            "POSITION": 4,
            "TEXCOORD_0": 6
          },
          "indices": 7,
          "material": 1,
          "mode": 4
        }
      ]
    },
    {
      "name": "Object_2",
      "primitives": [
        {
          "attributes": {
            "NORMAL": 9,
            "POSITION": 8,
            "TEXCOORD_0": 10
          },
          "indices": 11,
          "material": 2,
          "mode": 4
        }
      ]
    },
    {
      "name": "Object_3",
      "primitives": [
        {
          "attributes": {
            "NORMAL": 13,
            "POSITION": 12,
            "TEXCOORD_0": 14
          },
          "indices": 15,
          "material": 1,
          "mode": 4
        }
      ]
    },
    {
      "name": "Object_4",
      "primitives": [
        {
          "attributes": {
            "NORMAL": 17,
            "POSITION": 16,
            "TEXCOORD_0": 18
          },
          "indices": 19,
          "material": 0,
          "mode": 4
        }
      ]
    },
    {
      "name": "Object_5",
      "primitives": [
        {
          "attributes": {
            "NORMAL": 21,
            "POSITION": 20,
            "TEXCOORD_0": 22
          },
          "indices": 23,
          "material": 1,
          "mode": 4
        }
      ]
    },
    {
      "name": "Object_6",
      "primitives": [
        {
          "attributes": {
            "NORMAL": 25,
            "POSITION": 24,
            "TEXCOORD_0": 26
          },
          "indices": 27,
          "material": 3,
          "mode": 4
        }
      ]
    },
    {
      "name": "Object_7",
      "primitives": [
        {
          "attributes": {
            "NORMAL": 29,
            "POSITION": 28,
            "TEXCOORD_0": 30
          },
          "indices": 31,
          "material": 0,
          "mode": 4
        }
      ]
    },
    {
      "name": "Object_8",
      "primitives": [
        {
          "attributes": {
            "NORMAL": 33,
            "POSITION": 32,
            "TEXCOORD_0": 34
          },
          "indices": 35,
          "material": 4,
          "mode": 4
        }
      ]
    }
  ],
  "nodes": [
    {
      "children": [
        1
      ],
      "matrix": [
        1.0,
        0.0,
        0.0,
        0.0,
        0.0,
        2.220446049250313e-16,
        -1.0,
        0.0,
        0.0,
        1.0,
        2.220446049250313e-16,
        0.0,
        0.0,
        0.0,
        0.0,
        1.0
      ],
      "name": "Sketchfab_model"
    },
    {
      "children": [
        2
      ],
      "name": "root"
    },
    {
      "children": [
        3,
        13,
        15
      ],
      "matrix": [
        1.0,
        0.0,
        0.0,
        0.0,
        0.0,
        2.220446049250313e-16,
        1.0,
        0.0,
        0.0,
        -1.0,
        2.220446049250313e-16,
        0.0,
        0.0,
        0.0,
        0.0,
        1.0
      ],
      "name": "GLTF_SceneRootNode"
    },
    {
      "children": [
        4,
        5,
        6,
        7
      ],
      "matrix": [
        1.0,
        0.0,
        0.0,
        0.0,
        0.0,
        1.0,
        0.0,
        0.0,
        0.0,
        0.0,
        1.0,
        0.0,
        1.892844796180725,
        -0.6096377372741699,
        0.02312111109495163,
        1.0
      ],
      "name": "plane_2"
    },
    {
      "mesh": 0,
      "name": "Object_4"
    },
    {
      "mesh": 1,
      "name": "Object_5"
    },
    {
      "mesh": 2,
      "name": "Object_6"
    },
    {
      "children": [
        8,
        9,
        10
      ],
      "matrix": [
        0.0,
        -0.5765619874000549,
        -0.0,
        0.0,
        0.5765619874000549,
        0.0,
        0.0,
        0.0,
        0.0,
        0.0,
        0.5765619874000549,
        0.0,
        0.643250584602356,
        0.8645966053009033,
        -0.009081187658011913,
        1.0
      ],
      "name": "fuselage_1"
    },
    {
      "mesh": 3,
      "name": "Object_8"
    },
    {
      "mesh": 4,
      "name": "Object_9"
    },
    {
      "children": [
        11,
        12
      ],
      "matrix": [
        0.5862138271331787,
        0.0,
        0.0,
        0.0,
        0.0,
        0.5862138271331787,
        0.0,
        0.0,
        0.0,
        0.0,
        0.5862138271331787,
        0.0,
        0.004424444865435362,
        0.6251263618469238,
        -0.00966958049684763,
        1.0
      ],
      "name": "Cylinder_0"
    },
    {
      "mesh": 5,
      "name": "Object_11"
    },
    {
      "mesh": 6,
      "name": "Object_12"
    },
    {
      "children": [
        14
      ],
      "matrix": [
        2.9814501609199303e-05,
        0.45362885157979993,
        -0.01079656587785399,
        0.0,
        -0.10528138625043179,
        5.150942929780981e-06,
        -7.431027079091211e-05,
        0.0,
        -0.0003194383782875057,
        0.010789286781233049,
        0.4533221307044583,
        0.0,
        2.335226058959961,
        0.20332840085029602,
        0.008464819751679897,
        1.0
      ],
      "name": "Cylinder.001_3"
    },
    {
      "mesh": 7,
      "name": "Object_14"
    },
    {
      "children": [
        16
      ],
      "matrix": [
        0.053173599391620266,
        -0.10989272420217687,
        0.0,
        0.0,
        0.10989272420217687,
        0.053173599391620266,
        0.0,
        0.0,
        0.0,
        0.0,
        0.15165363252162933,
        0.0,
        1.226359248161316,
        0.8155550956726074,
        0.00656476616859436,
        1.0
      ],
      "name": "Circle_4"
    },
    {
      "mesh": 8,
      "name": "Object_16"
    }
  ],
  "scene": 0,
  "scenes": [
    {
      "name": "Sketchfab_Scene",
      "nodes": [
        0
      ]
    }
  ]
}
